<?xml version="1.0" encoding="UTF-8"?> <svg xmlns="http://www.w3.org/2000/svg" width="40" height="37" viewBox="0 0 40 37" fill="none"> <path fill-rule="evenodd" clip-rule="evenodd" d="M11.9004 0.661889C10.6124 1.42081 10.2156 1.72681 9.79165 2.28831C8.57255 3.90295 8.48146 5.95607 9.54919 7.75321L9.86644 8.28724L9.37129 8.8179C9.09893 9.10978 8.85857 9.35185 8.83711 9.35583C8.81564 9.35981 8.68286 9.17254 8.54195 8.93976C8.12807 8.25578 7.45057 7.7145 5.8542 6.79258L4.3935 5.94896L3.72411 7.10795C3.35597 7.74541 2.98159 8.47068 2.89228 8.71962C2.66294 9.35872 2.60603 10.7136 2.78011 11.3929C3.10563 12.6636 3.91739 13.7012 5.16311 14.4385C5.55233 14.6689 5.87082 14.8779 5.87098 14.9032C5.87113 14.9531 5.63945 15.9814 5.5923 16.1397C5.57114 16.2109 5.49347 16.1946 5.30714 16.0799C5.16631 15.9931 4.77007 15.8301 4.42659 15.7174C3.83988 15.5249 3.68711 15.5103 1.90105 15.4747L0 15.4369L0.0346596 17.0663C0.0646355 18.4756 0.091645 18.7569 0.234343 19.1467C0.667354 20.3299 1.38553 21.2247 2.3645 21.8009C3.11265 22.2413 3.72966 22.4059 4.83236 22.4592L5.78456 22.5053L5.94623 23.0375C6.03514 23.3302 6.12648 23.6183 6.14927 23.6776C6.1812 23.7609 6.06005 23.7965 5.61712 23.8339C4.7123 23.9104 4.13324 24.1367 2.5951 25.0151C1.80534 25.4661 1.12683 25.8675 1.08717 25.9072C1.00544 25.9889 2.03883 27.821 2.53577 28.4753C2.96269 29.0375 3.75471 29.6147 4.50466 29.9101C5.03368 30.1186 5.26061 30.1617 5.98932 30.1923C7.08266 30.2381 7.58757 30.1151 8.66334 29.5405L9.46637 29.1117L9.97135 29.5633C10.2491 29.8117 10.4756 30.0325 10.4749 30.0539C10.474 30.0754 10.2948 30.1984 10.0765 30.3272C9.38916 30.7328 8.85857 31.391 7.94931 32.966C7.48687 33.7669 7.12903 34.4553 7.15409 34.4958C7.20295 34.5751 8.69863 35.4464 9.35005 35.7753C9.93911 36.0727 10.6122 36.2209 11.3741 36.2209C13.146 36.2209 14.5796 35.363 15.5512 33.7215C15.9372 33.0696 15.9912 33.0112 16.1721 33.051C19.19 33.7151 20.81 33.7151 23.8279 33.051C24.0088 33.0112 24.0628 33.0696 24.4488 33.7215C25.1821 34.9605 26.2152 35.7737 27.4662 36.097C28.4089 36.3405 29.7657 36.2183 30.5727 35.8172C31.2926 35.4594 32.8758 34.5377 32.878 34.4751C32.881 34.3877 31.6094 32.1727 31.2361 31.6152C30.8966 31.1081 30.3083 30.5406 29.8516 30.2797C29.6718 30.177 29.5245 30.0754 29.5242 30.0539C29.5239 30.0325 29.7509 29.8117 30.0286 29.5633L30.5336 29.1117L31.3367 29.5405C32.4124 30.1151 32.9173 30.2381 34.0107 30.1923C34.7394 30.1617 34.9663 30.1186 35.4953 29.9101C36.2453 29.6147 37.0373 29.0375 37.4642 28.4753C37.6363 28.2488 38.0502 27.5922 38.3839 27.0163C38.9611 26.0204 38.9835 25.964 38.8433 25.8612C38.5528 25.648 36.4233 24.4381 35.9899 24.2399C35.484 24.0086 34.6387 23.8123 34.1404 23.8103C33.8673 23.8092 33.8094 23.7854 33.8462 23.6893C33.8715 23.6236 33.9649 23.3302 34.0538 23.0375L34.2154 22.5053L35.1676 22.4583C35.6914 22.4324 36.313 22.3536 36.5492 22.2829C38.0609 21.831 39.184 20.736 39.7657 19.1467C39.9084 18.7569 39.9354 18.4756 39.9653 17.0663L40 15.4369L38.0989 15.4729C36.2799 15.5075 36.171 15.5183 35.5734 15.7227C35.2299 15.8402 34.8347 16.0069 34.6952 16.0931C34.4994 16.2139 34.4343 16.2259 34.41 16.1458C34.3624 15.9885 34.1288 14.9555 34.129 14.9032C34.1292 14.8779 34.4477 14.6689 34.8369 14.4385C36.0826 13.7012 36.8944 12.6636 37.2199 11.3929C37.3157 11.0192 37.3387 10.675 37.3109 10.0325C37.2648 8.96326 37.1453 8.62798 36.2632 7.09226L35.6065 5.94896L34.1458 6.79258C32.5494 7.7145 31.8719 8.25578 31.458 8.93976C31.3171 9.17254 31.1844 9.35981 31.1629 9.35583C31.1414 9.35185 30.9011 9.10978 30.6287 8.8179L30.1336 8.28724L30.4508 7.75321C31.4651 6.04592 31.4342 4.12488 30.3668 2.5289C29.8812 1.80277 29.3618 1.37912 28.0085 0.604982C27.4268 0.272203 26.9354 0 26.9164 0C26.8473 0 25.2721 2.77675 25.1028 3.19711C24.5734 4.51114 24.7026 6.07995 25.4428 7.32723C25.8142 7.95313 26.5951 8.69433 27.3285 9.1172C28.0885 9.55536 28.5027 9.90484 29.1978 10.6945C32.095 13.9862 33.0517 18.4825 31.7308 22.599C31.1029 24.5555 30.2105 26.029 28.759 27.5058C25.1782 31.1492 19.9262 32.1931 15.1715 30.2065C12.4917 29.0867 10.0799 26.7648 8.85319 24.1237C6.76604 19.6298 7.52199 14.4213 10.8022 10.6945C11.4973 9.90484 11.9115 9.55536 12.6715 9.1172C13.4049 8.69433 14.1858 7.95313 14.5572 7.32723C15.2974 6.07995 15.4266 4.51114 14.8972 3.19711C14.7004 2.70868 13.1464 -0.00163934 13.0657 0.00304439C13.037 0.0046837 12.5126 0.301164 11.9004 0.661889ZM12.5841 3.78383C12.8256 4.25494 12.8573 4.38553 12.8573 4.91003C12.8573 5.40136 12.8198 5.57965 12.6395 5.94693C12.42 6.394 11.9384 6.9014 11.7829 6.84957C11.6395 6.80179 11.2613 5.99244 11.1812 5.56193C11.0958 5.10324 11.1762 4.51996 11.3787 4.1284C11.549 3.79913 12.1197 3.18907 12.2255 3.22327C12.2725 3.23849 12.4338 3.49071 12.5841 3.78383ZM28.18 3.54293C28.7499 4.16118 28.9574 4.81698 28.8188 5.56193C28.7387 5.99244 28.3605 6.80179 28.2171 6.84957C28.0662 6.89992 27.5827 6.39954 27.378 5.9812C27.1293 5.47271 27.0558 4.89629 27.176 4.39537C27.2729 3.99148 27.6845 3.20055 27.7979 3.20055C27.8345 3.20055 28.0064 3.35464 28.18 3.54293ZM6.30938 9.8484C6.40032 9.93177 6.57596 10.1826 6.69969 10.4058C6.90117 10.7693 6.92451 10.8848 6.92349 11.5142C6.92295 11.9006 6.87939 12.3146 6.82677 12.4342L6.73115 12.6517L6.41203 12.4732C5.89932 12.1865 5.45452 11.7576 5.24554 11.3484C5.08029 11.025 5.05133 10.8621 5.05289 10.2652C5.0539 9.87877 5.09746 9.46473 5.14968 9.34506L5.24461 9.12742L5.69425 9.41219C5.94163 9.56878 6.21843 9.76511 6.30938 9.8484ZM34.9082 9.55661C35.0532 10.0744 34.9818 10.8915 34.7518 11.3484C34.5461 11.7568 34.1026 12.1854 33.588 12.4732L33.2689 12.6517L33.1795 12.4342C33.0494 12.1179 33.0074 11.2481 33.1047 10.8868C33.2546 10.33 33.6184 9.86089 34.1862 9.49213C34.4769 9.30337 34.7363 9.162 34.7626 9.17808C34.7889 9.19416 34.8544 9.3645 34.9082 9.55661ZM18.5519 12.8178L17.1506 15.6437L14.8868 15.9736C13.6418 16.155 12.2196 16.3639 11.7263 16.4376L10.8296 16.5717L13.1183 18.8047L15.4069 21.0378L14.8895 24.0731C14.605 25.7426 14.3826 27.1542 14.3954 27.2101C14.4104 27.2758 15.3802 26.8055 17.1507 25.8739C18.6534 25.0832 19.9356 24.436 20 24.4356C20.0644 24.4351 21.3466 25.0809 22.8493 25.8705C24.5342 26.756 25.5902 27.2691 25.6042 27.2094C25.6168 27.1561 25.3943 25.7458 25.1099 24.0752L24.5927 21.0378L26.8825 18.8021L29.1723 16.5664L28.821 16.5133C28.6278 16.484 27.2051 16.2767 25.6595 16.0527L22.8493 15.6453L21.4491 12.8187C20.6791 11.264 20.0275 9.99196 20.0012 9.99196C19.9748 9.99196 19.3227 11.2636 18.5519 12.8178ZM20.6553 16.5297L21.2715 17.7727L22.4507 17.9452C23.0992 18.04 23.7513 18.1388 23.8997 18.1648L24.1695 18.2119L23.1241 19.2017L22.0788 20.1915L22.3142 21.61C22.4437 22.39 22.5336 23.0283 22.5139 23.0283C22.4942 23.0283 21.9213 22.7386 21.2408 22.3843L20.0034 21.7403L18.748 22.3926C18.0575 22.7514 17.4822 23.0324 17.4695 23.0171C17.4567 23.0018 17.5537 22.3603 17.6849 21.5915L17.9235 20.1937L16.8735 19.194C16.2961 18.6442 15.8468 18.193 15.875 18.1915C15.9032 18.1898 16.53 18.1007 17.2678 17.9933C18.0057 17.886 18.634 17.7982 18.6641 17.7982C18.6943 17.7982 18.9983 17.224 19.3399 16.5223C19.6815 15.8205 19.9785 15.2554 20 15.2665C20.0215 15.2777 20.3163 15.8462 20.6553 16.5297ZM3.558 17.916C4.51824 18.1661 5.18419 18.8845 5.35913 19.8589L5.41377 20.1631L4.79356 20.1206C4.05806 20.0702 3.53793 19.8637 3.11234 19.4532C2.75809 19.1114 2.4599 18.5607 2.38894 18.1169L2.33796 17.7982H2.72187C2.93303 17.7982 3.30929 17.8512 3.558 17.916ZM37.6111 18.1169C37.5401 18.5607 37.2419 19.1114 36.8877 19.4532C36.4621 19.8637 35.9419 20.0702 35.2064 20.1206L34.5862 20.1631L34.6409 19.8589C34.8645 18.613 35.8679 17.8201 37.2422 17.8033L37.662 17.7982L37.6111 18.1169ZM6.89992 26.366C7.30592 26.5457 7.90036 27.0511 7.90036 27.2168C7.90036 27.2779 7.64666 27.4495 7.3366 27.598C6.34981 28.0709 5.36076 27.9446 4.60434 27.2492C4.35696 27.0217 4.22676 26.8461 4.26243 26.7884C4.33401 26.6726 4.86913 26.3938 5.28528 26.2556C5.69916 26.118 6.45645 26.1699 6.89992 26.366ZM35.1304 26.4242C35.861 26.7521 35.8784 26.8052 35.4001 27.245C34.9148 27.6913 34.4422 27.8682 33.7355 27.8682C33.2931 27.8682 33.1286 27.8257 32.6565 27.5896C32.3502 27.4364 32.0996 27.2648 32.0996 27.2083C32.0996 27.0933 32.6128 26.6065 32.8929 26.4559C33.5655 26.0943 34.3699 26.0829 35.1304 26.4242ZM13.4881 32.0421L13.7624 32.1568L13.5831 32.4758C13.0599 33.4066 12.3221 33.8788 11.3911 33.8789C10.8773 33.879 10.3203 33.725 10.3203 33.5828C10.3203 33.5443 10.4589 33.2984 10.6283 33.0363C10.9459 32.5451 11.3419 32.2242 11.8583 32.04C12.2555 31.8983 13.1467 31.8995 13.4881 32.0421ZM28.142 32.0402C28.6388 32.2174 29.0678 32.5675 29.3813 33.0519C29.5454 33.3055 29.6797 33.5443 29.6797 33.5828C29.6797 33.725 29.1227 33.879 28.6089 33.8789C27.678 33.8788 26.9401 33.4066 26.417 32.476L26.2377 32.1571L26.4951 32.0453C26.8205 31.9039 27.752 31.901 28.142 32.0402Z" fill="#18A6A0"></path> </svg> 