<?xml version="1.0" encoding="UTF-8"?> <svg xmlns="http://www.w3.org/2000/svg" width="16" height="18" viewBox="0 0 16 18" fill="none"> <path fill-rule="evenodd" clip-rule="evenodd" d="M4.08476 0.069305C3.89378 0.153352 3.76307 0.280629 3.6544 0.488358C3.58021 0.630143 3.56337 0.74786 3.55024 1.21547L3.53457 1.77339L3.29891 1.79915C1.87453 1.95481 0.749598 2.80247 0.239003 4.10489C-0.00333143 4.72309 -0.000330136 4.64957 4.49949e-05 9.89389C0.00021172 12.9697 0.015717 14.7997 0.0431016 14.9756C0.258677 16.3623 1.26186 17.5074 2.60762 17.9028L2.93824 18H8.00251H13.0668L13.3974 17.9028C14.5915 17.5519 15.4892 16.6494 15.8674 15.4198L15.9844 15.0391L15.996 10.0946C16.0062 5.75805 15.9996 5.10263 15.9422 4.76492C15.7509 3.63863 14.9953 2.63882 13.9574 2.1386C13.6344 1.98294 13.112 1.84082 12.7061 1.79818L12.4704 1.77339L12.4548 1.21547C12.438 0.61703 12.3844 0.434935 12.1637 0.226022C11.8249 -0.0946868 11.2406 -0.0678271 10.912 0.283548C10.7132 0.496099 10.6701 0.668043 10.6701 1.24838V1.77847H8.00251H5.33491V1.24838C5.33491 0.668043 5.29181 0.496099 5.09303 0.283548C4.84069 0.013767 4.41605 -0.0764985 4.08476 0.069305ZM3.54262 4.06501C3.54262 4.69572 3.59305 4.87921 3.83359 5.12328C4.27241 5.5686 4.95152 5.4612 5.22558 4.90311C5.32645 4.69771 5.33491 4.63853 5.33491 4.1389V3.59731H8.00251H10.6701V4.1389C10.6701 4.6398 10.6784 4.69733 10.7804 4.90514C11.0584 5.47135 11.7942 5.57088 12.2046 5.09777C12.4129 4.85756 12.4624 4.65841 12.4624 4.05955V3.5864L12.6759 3.61516C13.1809 3.68313 13.6524 3.984 13.9253 4.41245C14.1925 4.83205 14.213 4.95527 14.213 6.14293V7.19269H8H1.78704L1.79992 6.06015L1.81284 4.92756L1.95539 4.63392C2.11266 4.30996 2.38254 4.00947 2.66969 3.83871C2.86792 3.72082 3.2368 3.60475 3.42799 3.6001L3.54262 3.59731V4.06501ZM14.213 11.859C14.213 14.9518 14.2144 14.9308 13.9783 15.3405C13.8487 15.5653 13.4856 15.9134 13.2573 16.0316C12.8488 16.243 12.8469 16.2431 8.00251 16.2431C3.15815 16.2431 3.15619 16.243 2.74771 16.0316C2.51942 15.9134 2.1563 15.5653 2.02675 15.3405C1.79059 14.9308 1.792 14.9518 1.792 11.859V9.01154H8.00251H14.213V11.859Z" fill="#18A6A0"></path> </svg> 