<?xml version="1.0" encoding="UTF-8"?> <svg xmlns="http://www.w3.org/2000/svg" width="16" height="18" viewBox="0 0 16 18" fill="none"> <path fill-rule="evenodd" clip-rule="evenodd" d="M4.08476 0.0683284C3.89378 0.152376 3.76307 0.279653 3.6544 0.487381C3.58021 0.629166 3.56337 0.746884 3.55024 1.2145L3.53457 1.77241L3.29891 1.79817C1.87453 1.95383 0.749598 2.8015 0.239003 4.10392C-0.00333144 4.72211 -0.000330136 4.6486 4.49949e-05 9.89291C0.00021172 12.9687 0.015717 14.7987 0.0431016 14.9747C0.258677 16.3613 1.26186 17.5064 2.60762 17.9019L2.93824 17.999H8.00251H13.0668L13.3974 17.9019C14.5915 17.551 15.4892 16.6485 15.8674 15.4188L15.9844 15.0381L15.996 10.0936C16.0062 5.75707 15.9996 5.10166 15.9422 4.76394C15.7509 3.63766 14.9953 2.63784 13.9574 2.13762C13.6344 1.98196 13.112 1.83984 12.7061 1.7972L12.4704 1.77241L12.4548 1.2145C12.438 0.616054 12.3844 0.433958 12.1637 0.225045C11.8249 -0.0956633 11.2406 -0.0688037 10.912 0.282571C10.7132 0.495122 10.6701 0.667066 10.6701 1.2474V1.77749H8.00251H5.33491V1.2474C5.33491 0.667066 5.29181 0.495122 5.09303 0.282571C4.84069 0.0127904 4.41605 -0.077475 4.08476 0.0683284ZM3.54262 4.06403C3.54262 4.69474 3.59305 4.87824 3.83359 5.1223C4.27241 5.56762 4.95152 5.46022 5.22558 4.90213C5.32645 4.69673 5.33491 4.63756 5.33491 4.13792V3.59633H8.00251H10.6701V4.13792C10.6701 4.63882 10.6784 4.69635 10.7804 4.90416C11.0584 5.47037 11.7942 5.5699 12.2046 5.09679C12.4129 4.85658 12.4624 4.65744 12.4624 4.05857V3.58542L12.6759 3.61418C13.1809 3.68216 13.6524 3.98303 13.9253 4.41147C14.1925 4.83107 14.213 4.95429 14.213 6.14195V7.19172H8H1.78704L1.79992 6.05917L1.81284 4.92658L1.95539 4.63295C2.11266 4.30898 2.38254 4.00849 2.66969 3.83773C2.86792 3.71984 3.2368 3.60378 3.42799 3.59912L3.54262 3.59633V4.06403ZM14.213 11.858C14.213 14.9508 14.2144 14.9298 13.9783 15.3395C13.8487 15.5644 13.4856 15.9124 13.2573 16.0306C12.8488 16.2421 12.8469 16.2421 8.00251 16.2421C3.15815 16.2421 3.15619 16.2421 2.74771 16.0306C2.51942 15.9124 2.1563 15.5644 2.02675 15.3395C1.79059 14.9298 1.792 14.9508 1.792 11.858V9.01056H8.00251H14.213V11.858Z" fill="white"></path> </svg> 