<?xml version="1.0" encoding="UTF-8"?> <svg xmlns="http://www.w3.org/2000/svg" width="32" height="32" viewBox="0 0 32 32" fill="none"> <g clip-path="url(#clip0_121_417)"> <path d="M8.11437 31.8868C6.21131 31.8003 5.17752 31.4836 4.48991 31.2154C3.57881 30.8606 2.92924 30.4384 2.24543 29.7555C1.56163 29.0727 1.13841 28.4231 0.78557 27.512C0.517374 26.8244 0.200674 25.7906 0.114128 23.8875C0.0190229 21.8304 1.85452e-06 21.2132 1.39889e-06 16.0014C9.43263e-07 10.7897 0.020924 10.1734 0.113176 8.11436C0.199721 6.21131 0.518323 5.17942 0.784617 4.48991C1.13936 3.5788 1.56258 2.92924 2.24448 2.24448C2.92733 1.56162 3.5769 1.13746 4.48896 0.784616C5.17657 0.51642 6.21036 0.19972 8.11341 0.113174C10.1715 0.0190201 10.7897 -9.43263e-07 15.9995 -1.39872e-06C21.2113 -1.85435e-06 21.8276 0.0209212 23.8866 0.113173C25.7896 0.199718 26.8215 0.51832 27.511 0.784614C28.4221 1.13745 29.0717 1.56162 29.7555 2.24448C30.4393 2.92733 30.8606 3.57785 31.2154 4.48896C31.4836 5.17657 31.8003 6.21036 31.8868 8.11341C31.981 10.1724 32 10.7887 32 16.0005C32 21.2103 31.981 21.8285 31.8868 23.8875C31.8003 25.7906 31.4817 26.8244 31.2154 27.512C30.8606 28.4231 30.4384 29.0727 29.7555 29.7555C29.0727 30.4384 28.4221 30.8606 27.511 31.2154C26.8234 31.4836 25.7896 31.8003 23.8866 31.8868C21.8295 31.981 21.2113 32 15.9995 32C10.7897 32 10.1715 31.9819 8.11437 31.8868Z" fill="url(#paint0_radial_121_417)"></path> <path d="M8.11437 31.8868C6.21131 31.8003 5.17752 31.4836 4.48991 31.2154C3.57881 30.8606 2.92924 30.4384 2.24543 29.7555C1.56163 29.0727 1.13841 28.4231 0.78557 27.512C0.517374 26.8244 0.200674 25.7906 0.114128 23.8875C0.0190229 21.8304 1.85452e-06 21.2132 1.39889e-06 16.0014C9.43263e-07 10.7897 0.020924 10.1734 0.113176 8.11436C0.199721 6.21131 0.518323 5.17942 0.784617 4.48991C1.13936 3.5788 1.56258 2.92924 2.24448 2.24448C2.92733 1.56162 3.5769 1.13746 4.48896 0.784616C5.17657 0.51642 6.21036 0.19972 8.11341 0.113174C10.1715 0.0190201 10.7897 -9.43263e-07 15.9995 -1.39872e-06C21.2113 -1.85435e-06 21.8276 0.0209212 23.8866 0.113173C25.7896 0.199718 26.8215 0.51832 27.511 0.784614C28.4221 1.13745 29.0717 1.56162 29.7555 2.24448C30.4393 2.92733 30.8606 3.57785 31.2154 4.48896C31.4836 5.17657 31.8003 6.21036 31.8868 8.11341C31.981 10.1724 32 10.7887 32 16.0005C32 21.2103 31.981 21.8285 31.8868 23.8875C31.8003 25.7906 31.4817 26.8244 31.2154 27.512C30.8606 28.4231 30.4384 29.0727 29.7555 29.7555C29.0727 30.4384 28.4221 30.8606 27.511 31.2154C26.8234 31.4836 25.7896 31.8003 23.8866 31.8868C21.8295 31.981 21.2113 32 15.9995 32C10.7897 32 10.1715 31.9819 8.11437 31.8868Z" fill="url(#paint1_radial_121_417)"></path> <path d="M12.0714 16.0681C12.0714 13.8796 13.845 12.105 16.0335 12.105C18.2219 12.105 19.9965 13.8796 19.9965 16.0681C19.9965 18.2565 18.2219 20.0311 16.0335 20.0311C13.845 20.0311 12.0714 18.2565 12.0714 16.0681ZM9.92905 16.0681C9.92905 19.4395 12.662 22.1725 16.0335 22.1725C19.4049 22.1725 22.1379 19.4395 22.1379 16.0681C22.1379 12.6966 19.4049 9.96365 16.0335 9.96365C12.662 9.96365 9.92914 12.6964 9.92914 16.0681L9.92905 16.0681ZM20.9531 9.72161C20.9529 10.0038 21.0365 10.2796 21.1932 10.5143C21.3498 10.7489 21.5725 10.9319 21.8332 11.0399C22.0938 11.148 22.3806 11.1764 22.6574 11.1215C22.9341 11.0665 23.1884 10.9308 23.388 10.7313C23.5876 10.5319 23.7235 10.2778 23.7787 10.001C23.8338 9.72434 23.8057 9.43749 23.6978 9.17678C23.59 8.91606 23.4072 8.69319 23.1727 8.53634C22.9381 8.37949 22.6624 8.29572 22.3802 8.2956L22.3796 8.2956C22.0014 8.29578 21.6388 8.44606 21.3713 8.71343C21.1038 8.9808 20.9534 9.34341 20.9531 9.72161ZM11.2307 25.7448C10.0716 25.692 9.44163 25.499 9.02298 25.3359C8.46795 25.1198 8.07193 24.8624 7.65556 24.4466C7.23919 24.0308 6.98145 23.6352 6.76633 23.0802C6.60313 22.6617 6.41006 22.0315 6.35737 20.8725C6.29974 19.6194 6.28823 19.243 6.28823 16.0683C6.28823 12.8936 6.30069 12.5182 6.35737 11.264C6.41016 10.105 6.60465 9.47605 6.76633 9.05635C6.9824 8.50132 7.23976 8.1053 7.65556 7.68893C8.07136 7.27256 8.46699 7.01482 9.02298 6.7997C9.44144 6.6365 10.0716 6.44343 11.2307 6.39074C12.4838 6.33311 12.8602 6.3216 16.0335 6.3216C19.2067 6.3216 19.5835 6.33387 20.8377 6.39093C21.9967 6.44372 22.6257 6.63821 23.0454 6.79988C23.6004 7.01501 23.9964 7.27332 24.4128 7.68912C24.8292 8.10492 25.0859 8.5015 25.302 9.05654C25.4652 9.475 25.6583 10.1052 25.711 11.2642C25.7686 12.5184 25.7801 12.8937 25.7801 16.0684C25.7801 19.2431 25.7686 19.6185 25.711 20.8727C25.6582 22.0317 25.4642 22.6617 25.302 23.0804C25.0859 23.6354 24.8286 24.0314 24.4128 24.4468C23.997 24.8622 23.6004 25.12 23.0454 25.3361C22.6269 25.4993 21.9967 25.6923 20.8377 25.745C19.5846 25.8026 19.2082 25.8141 16.0335 25.8141C12.8588 25.8141 12.4834 25.8026 11.2307 25.745L11.2307 25.7448ZM11.1322 4.25193C9.86666 4.30956 9.00187 4.51023 8.24664 4.80411C7.46497 5.10759 6.80237 5.51473 6.14072 6.17533C5.47908 6.83593 5.07298 7.49862 4.7695 8.28124C4.47563 9.03695 4.27495 9.90126 4.21732 11.1668C4.15874 12.4344 4.14533 12.8396 4.14533 16.0681C4.14533 19.2965 4.15874 19.7017 4.21732 20.9693C4.27495 22.235 4.47563 23.0992 4.7695 23.8549C5.07298 24.6366 5.47917 25.3005 6.14073 25.9608C6.80228 26.6211 7.46402 27.0277 8.24664 27.332C9.00329 27.6259 9.86666 27.8266 11.1322 27.8842C12.4004 27.9418 12.805 27.9562 16.0335 27.9562C19.2619 27.9562 19.6671 27.9428 20.9347 27.8842C22.2004 27.8266 23.0646 27.6259 23.8203 27.332C24.602 27.0277 25.2645 26.6214 25.9262 25.9608C26.5878 25.3002 26.9931 24.6366 27.2974 23.8549C27.5913 23.0992 27.7929 22.2349 27.8496 20.9693C27.9072 19.7008 27.9206 19.2965 27.9206 16.0681C27.9206 12.8396 27.9072 12.4344 27.8496 11.1668C27.792 9.90117 27.5913 9.03647 27.2974 8.28124C26.9931 7.49957 26.5868 6.83698 25.9262 6.17533C25.2656 5.51368 24.6019 5.10758 23.8212 4.8041C23.0646 4.51023 22.2003 4.30861 20.9356 4.25192C19.6679 4.19401 19.2628 4.17993 16.0349 4.17993C12.8069 4.17993 12.4009 4.19334 11.1327 4.25193" fill="white"></path> </g> <defs> <radialGradient id="paint0_radial_121_417" cx="0" cy="0" r="1" gradientUnits="userSpaceOnUse" gradientTransform="translate(2.07101 31.299) scale(40.6281)"> <stop offset="0.09" stop-color="#FA8F21"></stop> <stop offset="0.78" stop-color="#D82D7E"></stop> </radialGradient> <radialGradient id="paint1_radial_121_417" cx="0" cy="0" r="1" gradientUnits="userSpaceOnUse" gradientTransform="translate(22.1653 30.2715) scale(35.7531)"> <stop offset="0.64" stop-color="#8C3AAA" stop-opacity="0"></stop> <stop offset="1" stop-color="#8C3AAA"></stop> </radialGradient> <clipPath id="clip0_121_417"> <rect width="32" height="32" fill="white"></rect> </clipPath> </defs> </svg> 