<?xml version="1.0" encoding="UTF-8"?> <svg xmlns="http://www.w3.org/2000/svg" width="40" height="40" viewBox="0 0 40 40" fill="none"> <path fill-rule="evenodd" clip-rule="evenodd" d="M0 20V40L17.4023 39.9994C29.178 39.999 34.9689 39.9723 35.3125 39.9168C36.5724 39.7133 37.4762 39.2409 38.4413 38.2812C39.2065 37.5205 39.6004 36.8499 39.8459 35.8899C39.9925 35.3169 40 35.0043 40 29.4797V23.6719H35.5469H31.0938V11.8359V0H15.5469H0V20ZM28.75 19.1016C28.7873 35.0432 28.7957 35.8403 28.9322 36.25C29.0109 36.4863 29.1948 36.8995 29.3409 37.168L29.6064 37.6562H16.0141H2.42188V19.9998V2.34328L15.5664 2.36305L28.7109 2.38281L28.75 19.1016ZM5.23438 9.92188V13.4375H8.78906H12.3438V9.92188V6.40625H8.78906H5.23438V9.92188ZM10 9.92188V11.0938H8.78906H7.57812V9.92188V8.75H8.78906H10V9.92188ZM15.5995 8.80148C15.5705 8.83047 15.5469 9.35805 15.5469 9.97398V11.0938H20.4709H25.3948L25.3732 9.94141L25.3516 8.78906L20.5019 8.76891C17.8345 8.75789 15.6285 8.7725 15.5995 8.80148ZM5.23438 19.9219V23.4375H8.78906H12.3438V19.9219V16.4062H8.78906H5.23438V19.9219ZM10 19.9219V21.0938H8.78906H7.57812V19.9219V18.75H8.78906H10V19.9219ZM15.5643 19.9023L15.5859 21.0547L20.4883 21.0748L25.3906 21.0949V19.9225V18.75H20.4666H15.5427L15.5643 19.9023ZM37.5615 30.7227L37.5391 35.4297L37.3237 35.8681C37.0583 36.4083 36.3919 37.053 35.836 37.3076C35.1746 37.6103 34.3758 37.703 33.6688 37.5588C32.8556 37.393 32.3782 37.1502 31.8682 36.6435C31.5598 36.3371 31.382 36.0772 31.2627 35.7582C31.0965 35.3139 31.0938 35.2318 31.0938 30.6611V26.0156H34.3388H37.5839L37.5615 30.7227ZM5.23438 29.8438V33.3594H8.78906H12.3438V29.8438V26.3281H8.78906H5.23438V29.8438ZM10 29.8438V31.0156H8.78906H7.57812V29.8438V28.6719H8.78906H10V29.8438ZM15.5469 29.8438V31.0156H20.4688H25.3906V29.8438V28.6719H20.4688H15.5469V29.8438Z" fill="#18A6A0"></path> </svg> 