<?xml version="1.0" encoding="UTF-8"?> <svg xmlns="http://www.w3.org/2000/svg" width="40" height="40" viewBox="0 0 40 40" fill="none"> <path fill-rule="evenodd" clip-rule="evenodd" d="M25.8213 0.0841161C24.0023 0.349363 22.2433 1.28882 20.9636 2.67852C18.9703 4.84308 18.2945 8.06207 19.247 10.8548C19.3558 11.174 19.4449 11.4614 19.4449 11.4934C19.4449 11.5254 17.9773 11.0622 16.1837 10.4641L12.9226 9.37635L11.7483 9.83932C7.05378 11.6901 0.090749 14.4765 0.042292 14.5238C0.00993527 14.5554 -0.00764992 20.3004 0.00321382 27.2906L0.0229874 40L6.35366 37.7365C9.83553 36.4915 12.7601 35.4536 12.8529 35.43C12.9572 35.4034 15.6793 36.2578 19.9994 37.6731C23.8373 38.9304 27.0147 39.9578 27.0603 39.9562C27.1269 39.9538 37.4224 35.9474 39.4724 35.1262L40 34.9147V21.9109C40 14.7587 39.9909 8.90689 39.9798 8.90689C39.9688 8.90689 38.8019 9.36369 37.3868 9.922C35.9717 10.4804 34.805 10.9283 34.7942 10.9173C34.7832 10.9064 34.8411 10.6566 34.9227 10.3622C35.6885 7.6009 34.8788 4.50844 32.8551 2.46516C31.005 0.597104 28.385 -0.28984 25.8213 0.0841161ZM28.6282 2.57887C29.657 2.89789 30.3597 3.32452 31.1292 4.09744C32.1788 5.15163 32.7123 6.28373 32.8481 7.74493C32.9373 8.70628 32.6723 10.0625 32.223 10.9434C32.0669 11.2495 27.2123 18.7426 27.0759 18.8879C27.0081 18.9602 26.3777 18.046 24.4162 15.0305C23.0023 12.8568 21.7477 10.8447 21.6284 10.5592C20.7065 8.35452 21.1718 5.82092 22.8056 4.14972C23.6559 3.27989 24.643 2.7276 25.8146 2.46618C26.5693 2.29776 27.8925 2.35075 28.6282 2.57887ZM26.09 4.81198C25.5499 4.95711 25.0622 5.24181 24.5782 5.69455C23.6674 6.5464 23.3036 7.85114 23.6288 9.09953C23.7973 9.74632 24.0946 10.254 24.5965 10.7518C25.9834 12.1277 28.04 12.1213 29.4291 10.737C30.2639 9.90505 30.6588 8.76247 30.4815 7.69226C30.136 5.60788 28.0994 4.27203 26.09 4.81198ZM27.582 7.20193C27.9049 7.3834 28.1998 7.8663 28.1967 8.20868C28.1938 8.5259 27.9195 9.0285 27.6409 9.22724C27.1287 9.59252 26.4817 9.44965 26.0539 8.8768C25.8277 8.57389 25.8281 7.83418 26.0546 7.5254C26.4102 7.04063 27.0528 6.90457 27.582 7.20193ZM17.8036 13.4767C19.7165 14.1114 21.3269 14.6731 21.3822 14.7248C21.4376 14.7766 22.4658 16.3286 23.6671 18.1736L25.8513 21.5284L25.8525 29.3324C25.8535 35.5437 25.8338 37.1288 25.756 37.0991C25.7023 37.0785 23.6536 36.4045 21.2034 35.6012C18.7532 34.7978 16.1594 33.9463 15.4393 33.7089L14.1302 33.2772V22.764C14.1302 14.3863 14.1501 12.258 14.2279 12.2866C14.2817 12.3064 15.8907 12.8419 17.8036 13.4767ZM11.7272 33.2964C11.6674 33.3509 2.46999 36.6507 2.378 36.6507C2.35049 36.6507 2.33696 32.0245 2.34783 26.3702L2.36768 16.0896L7.05707 14.2264L11.7465 12.3631L11.7663 22.803C11.7772 28.5448 11.7596 33.2669 11.7272 33.2964ZM37.6553 22.8152C37.6553 32.7156 37.6479 33.2887 37.5182 33.358C37.3052 33.4721 28.3483 36.9633 28.2688 36.9633C28.2275 36.9633 28.1984 33.7676 28.1984 29.2253V21.4872L30.5712 17.8433L32.944 14.1993L35.2411 13.2808C36.5045 12.7756 37.5644 12.3585 37.5967 12.3539C37.629 12.3493 37.6553 17.0569 37.6553 22.8152Z" fill="#18A6A0"></path> </svg> 