<?xml version="1.0" encoding="UTF-8"?> <svg xmlns="http://www.w3.org/2000/svg" width="32" height="32" viewBox="0 0 32 32" fill="none"> <g clip-path="url(#clip0_121_404)"> <path d="M31.9982 23.911C31.9982 24.0862 31.9928 24.4662 31.9823 24.7597C31.9565 25.4779 31.8996 26.4047 31.8135 26.8269C31.6841 27.4615 31.4888 28.0604 31.2341 28.559C30.9327 29.1487 30.5484 29.6769 30.0916 30.1328C29.6359 30.5878 29.1081 30.9707 28.5193 31.2708C28.0181 31.5262 27.4155 31.7216 26.7773 31.8505C26.3592 31.9349 25.4394 31.9907 24.7258 32.0161C24.432 32.0266 24.0519 32.0319 23.8773 32.0319L8.12026 32.0294C7.94505 32.0294 7.56511 32.024 7.27158 32.0135C6.55336 31.9877 5.62661 31.9308 5.20433 31.8447C4.56976 31.7153 3.9708 31.52 3.4723 31.2653C2.88255 30.9639 2.35433 30.5795 1.89842 30.1228C1.44342 29.667 1.06055 29.1393 0.760452 28.5505C0.505015 28.0493 0.309577 27.4466 0.180733 26.8085C0.0963584 26.3904 0.0405146 25.4706 0.0151084 24.7569C0.0046709 24.4631 -0.000610352 24.0831 -0.000610352 23.9085L0.00188965 8.15142C0.00188965 7.9762 0.0072334 7.59624 0.0177646 7.30271C0.0435459 6.58449 0.100452 5.65774 0.186546 5.23549C0.315952 4.60092 0.511265 4.00196 0.765983 3.50342C1.06733 2.91371 1.45173 2.38546 1.90845 1.92955C2.3642 1.47458 2.89195 1.09167 3.4808 0.791549C3.98195 0.536174 4.58467 0.340736 5.22283 0.211893C5.64086 0.127486 6.5607 0.0716426 7.27433 0.0462676C7.56814 0.0357988 7.94823 0.0305176 8.12273 0.0305176L23.8798 0.0330488C24.0551 0.0330488 24.435 0.0383926 24.7285 0.0489238C25.4468 0.0747051 26.3735 0.131611 26.7958 0.217705C27.4303 0.347111 28.0293 0.542424 28.5278 0.797143C29.1175 1.09849 29.6458 1.48289 30.1017 1.93961C30.5566 2.39536 30.9395 2.92308 31.2396 3.51196C31.4951 4.01311 31.6905 4.6158 31.8194 5.25396C31.9037 5.67202 31.9595 6.59183 31.985 7.30549C31.9955 7.5993 32.0007 7.97936 32.0007 8.15392L31.9982 23.911Z" fill="url(#paint0_linear_121_404)"></path> <path d="M24.4781 7.60162C22.3116 5.43327 19.4303 4.23852 16.3605 4.2373C10.0355 4.2373 4.88763 9.38318 4.8851 15.7083C4.88429 17.7301 5.41269 19.7037 6.41688 21.4434L4.78888 27.388L10.8722 25.7928C12.5483 26.7067 14.4353 27.1883 16.356 27.1891H16.3607C22.6851 27.1891 27.8334 22.0426 27.836 15.7174C27.8372 12.6522 26.6447 9.76996 24.4781 7.60162ZM16.3607 25.2516H16.3568C14.6453 25.251 12.9667 24.7914 11.5023 23.9226L11.154 23.716L7.54407 24.6626L8.50763 21.1441L8.28079 20.7834C7.32604 19.2653 6.82179 17.5106 6.82254 15.7091C6.8246 10.4519 11.1033 6.1748 16.3644 6.1748C18.9119 6.17577 21.3067 7.1689 23.1075 8.97112C24.9083 10.7733 25.8994 13.169 25.8985 15.7167C25.8964 20.9743 21.6177 25.2516 16.3607 25.2516ZM21.5924 18.1106C21.3056 17.9671 19.896 17.2736 19.6331 17.178C19.3703 17.0823 19.1792 17.0345 18.988 17.3215C18.7969 17.6084 18.2474 18.2541 18.0801 18.4453C17.9128 18.6366 17.7456 18.6606 17.4588 18.5171C17.1721 18.3736 16.2482 18.0709 15.153 17.0944C14.3007 16.3344 13.7252 15.3957 13.5579 15.1087C13.3907 14.8217 13.5402 14.6666 13.6837 14.5237C13.8127 14.3953 13.9704 14.1889 14.1138 14.0215C14.2571 13.8542 14.3049 13.7346 14.4005 13.5433C14.4961 13.352 14.4483 13.1846 14.3766 13.0411C14.3049 12.8976 13.7315 11.4867 13.4925 10.9128C13.2598 10.3539 13.0234 10.4295 12.8474 10.4207C12.6803 10.4124 12.489 10.4107 12.2978 10.4107C12.1067 10.4107 11.7961 10.4824 11.5333 10.7694C11.2704 11.0563 10.5297 11.7498 10.5297 13.1606C10.5297 14.5715 11.5571 15.9345 11.7005 16.1258C11.8439 16.3171 13.7223 19.2124 16.5987 20.454C17.2828 20.7493 17.8168 20.9257 18.2333 21.0578C18.9202 21.2759 19.5452 21.2451 20.0393 21.1714C20.5902 21.0891 21.7357 20.478 21.9747 19.8084C22.2136 19.1388 22.2136 18.5649 22.1419 18.4454C22.0703 18.3258 21.8791 18.2541 21.5924 18.1106Z" fill="white"></path> </g> <defs> <linearGradient id="paint0_linear_121_404" x1="16" y1="0.0305176" x2="16" y2="32.0319" gradientUnits="userSpaceOnUse"> <stop stop-color="#61FD7D"></stop> <stop offset="1" stop-color="#2BB826"></stop> </linearGradient> <clipPath id="clip0_121_404"> <rect width="32" height="32" fill="white"></rect> </clipPath> </defs> </svg> 